<svg width="106" height="106" viewBox="0 0 106 106" fill="none" xmlns="http://www.w3.org/2000/svg">
<path d="M95.0091 36.9609C92.7103 33.8272 89.5038 30.157 85.9859 26.6391C82.468 23.1212 78.7977 19.9147 75.6641 17.6159C70.3244 13.7005 67.734 13.25 66.25 13.25H28.1562C23.5916 13.25 19.875 16.9666 19.875 21.5312V97.7188C19.875 102.283 23.5916 106 28.1562 106H91.0938C95.6584 106 99.375 102.283 99.375 97.7188V46.375C99.375 44.891 98.9245 42.3006 95.0091 36.9609ZM81.2954 31.3296C84.4754 34.5096 86.9664 37.3716 88.8081 39.75H72.8684V23.8169C75.2467 25.6586 78.122 28.1496 81.2954 31.3296ZM92.75 97.7188C92.75 98.6198 91.9948 99.375 91.0938 99.375H28.1562C27.7186 99.3698 27.3003 99.1937 26.9908 98.8842C26.6813 98.5747 26.5052 98.1564 26.5 97.7188V21.5312C26.5 20.6369 27.2552 19.875 28.1562 19.875H66.25V43.0625C66.25 43.941 66.599 44.7836 67.2202 45.4048C67.8414 46.026 68.684 46.375 69.5625 46.375H92.75V97.7188Z" fill="#33C896"/>
<path d="M62.4141 4.36588C57.0744 0.4505 54.484 0 53 0H14.9062C10.3416 0 6.625 3.71663 6.625 8.28125V84.4688C6.625 88.4703 9.47375 91.8159 13.25 92.5844V8.28125C13.25 7.38688 14.0119 6.625 14.9062 6.625H65.3026C64.3567 5.84776 63.398 5.09448 62.4141 4.36588Z" fill="#33C896"/>
</svg>
